<svg xmlns="http://www.w3.org/2000/svg" width="20" height="24" viewBox="0 0 20 24" fill="none">
  <path d="M19.5244 16.3566V1.26282C19.5244 0.665356 19.0695 0.184692 18.504 0.184692H4.55748C2.30393 0.184692 0.475586 2.11633 0.475586 4.49719V18.8722C0.475586 21.2531 2.30393 23.1847 4.55748 23.1847H18.504C19.0695 23.1847 19.5244 22.704 19.5244 22.1066V21.3878C19.5244 21.0509 19.3756 20.7454 19.146 20.5478C18.9674 19.856 18.9674 17.8839 19.146 17.1921C19.3756 16.999 19.5244 16.6935 19.5244 16.3566ZM5.91811 6.20422C5.91811 6.05598 6.03292 5.93469 6.17323 5.93469H15.1874C15.3277 5.93469 15.4425 6.05598 15.4425 6.20422V7.10266C15.4425 7.2509 15.3277 7.37219 15.1874 7.37219H6.17323C6.03292 7.37219 5.91811 7.2509 5.91811 7.10266V6.20422ZM5.91811 9.07922C5.91811 8.93098 6.03292 8.80969 6.17323 8.80969H15.1874C15.3277 8.80969 15.4425 8.93098 15.4425 9.07922V9.97766C15.4425 10.1259 15.3277 10.2472 15.1874 10.2472H6.17323C6.03292 10.2472 5.91811 10.1259 5.91811 9.97766V9.07922ZM16.6926 20.3097H4.55748C3.80488 20.3097 3.19685 19.6673 3.19685 18.8722C3.19685 18.0816 3.80913 17.4347 4.55748 17.4347H16.6926C16.6118 18.2029 16.6118 19.5415 16.6926 20.3097Z" fill="black"/>
</svg>