<svg xmlns="http://www.w3.org/2000/svg" width="26" height="20" viewBox="0 0 26 20" fill="none">
  <path d="M7.78405 10C10.2082 10 12.1703 7.76339 12.1703 5C12.1703 2.23661 10.2082 0 7.78405 0C5.35987 0 3.3978 2.23661 3.3978 5C3.3978 7.76339 5.35987 10 7.78405 10ZM10.7918 11.4286H10.4667C9.65212 11.875 8.74746 12.1429 7.78405 12.1429C6.82064 12.1429 5.9199 11.875 5.10139 11.4286H4.77634C2.28558 11.4286 0.264771 13.7321 0.264771 16.5714V17.8571C0.264771 19.0402 1.10677 20 2.14459 20H13.4235C14.4613 20 15.3033 19.0402 15.3033 17.8571V16.5714C15.3033 13.7321 13.2825 11.4286 10.7918 11.4286ZM19.063 10C21.1386 10 22.8226 8.08036 22.8226 5.71429C22.8226 3.34821 21.1386 1.42857 19.063 1.42857C16.9873 1.42857 15.3033 3.34821 15.3033 5.71429C15.3033 8.08036 16.9873 10 19.063 10ZM20.9428 11.4286H20.794C20.2496 11.6429 19.6739 11.7857 19.063 11.7857C18.452 11.7857 17.8763 11.6429 17.332 11.4286H17.1832C16.3842 11.4286 15.648 11.692 15.0018 12.1161C15.9574 13.2902 16.5565 14.8482 16.5565 16.5714V18.2857C16.5565 18.3839 16.537 18.4777 16.533 18.5714H23.4492C24.487 18.5714 25.329 17.6116 25.329 16.4286C25.329 13.6652 23.367 11.4286 20.9428 11.4286Z" fill="black"/>
</svg>