<svg xmlns="http://www.w3.org/2000/svg" width="31" height="18" viewBox="0 0 31 18" fill="none">
  <path d="M23.2213 0.905396H8.18049C6.9408 0.905195 5.7203 1.25153 4.62765 1.91358C3.535 2.57562 2.6041 3.53283 1.91784 4.69997C1.23157 5.86712 0.811227 7.208 0.694234 8.60322C0.57724 9.99845 0.767225 11.4047 1.24727 12.6969C1.72732 13.989 2.48254 15.1269 3.44569 16.0093C4.40884 16.8916 5.55003 17.4911 6.76767 17.7542C7.98531 18.0174 9.24162 17.9361 10.4247 17.5175C11.6079 17.099 12.6811 16.3563 13.5489 15.3554H17.8496C18.7173 16.3561 19.7904 17.0988 20.9733 17.5174C22.1563 17.9359 23.4125 18.0174 24.63 17.7544C25.8475 17.4914 26.9887 16.8922 27.9518 16.0101C28.915 15.1281 29.6703 13.9905 30.1506 12.6986C30.6308 11.4067 30.8211 10.0006 30.7044 8.60554C30.5878 7.21043 30.1679 5.86957 29.482 4.7023C28.7962 3.53503 27.8657 2.57756 26.7734 1.91511C25.6811 1.25267 24.4608 0.905809 23.2213 0.905396ZM12.3158 10.0429C12.3158 10.212 12.2564 10.3741 12.1506 10.4937C12.0449 10.6132 11.9015 10.6804 11.7519 10.6804H9.3083V13.4429C9.3083 13.612 9.24889 13.7741 9.14314 13.8937C9.03739 14.0132 8.89396 14.0804 8.7444 14.0804H7.61659C7.46703 14.0804 7.3236 14.0132 7.21785 13.8937C7.11209 13.7741 7.05268 13.612 7.05268 13.4429V10.6804H4.60909C4.45953 10.6804 4.3161 10.6132 4.21035 10.4937C4.1046 10.3741 4.04519 10.212 4.04519 10.0429V8.76789C4.04519 8.59882 4.1046 8.43667 4.21035 8.31711C4.3161 8.19756 4.45953 8.13039 4.60909 8.13039H7.05268V5.3679C7.05268 5.19882 7.11209 5.03667 7.21785 4.91711C7.3236 4.79756 7.46703 4.7304 7.61659 4.7304H8.7444C8.89396 4.7304 9.03739 4.79756 9.14314 4.91711C9.24889 5.03667 9.3083 5.19882 9.3083 5.3679V8.13039H11.7519C11.9015 8.13039 12.0449 8.19756 12.1506 8.31711C12.2564 8.43667 12.3158 8.59882 12.3158 8.76789V10.0429ZM22.4661 14.0804C22.0943 14.0804 21.7309 13.9558 21.4218 13.7223C21.1127 13.4888 20.8718 13.1569 20.7295 12.7686C20.5872 12.3803 20.55 11.953 20.6225 11.5408C20.6951 11.1286 20.8741 10.75 21.137 10.4528C21.3998 10.1556 21.7348 9.95322 22.0994 9.87123C22.464 9.78923 22.842 9.83132 23.1854 9.99215C23.5289 10.153 23.8225 10.4254 24.029 10.7748C24.2355 11.1243 24.3458 11.5351 24.3458 11.9554C24.3458 12.519 24.1478 13.0595 23.7952 13.458C23.4427 13.8565 22.9646 14.0804 22.4661 14.0804ZM25.4736 8.98039C25.1018 8.98039 24.7384 8.85577 24.4293 8.62227C24.1202 8.38877 23.8793 8.05689 23.737 7.6686C23.5947 7.2803 23.5575 6.85304 23.63 6.44083C23.7026 6.02862 23.8816 5.64998 24.1445 5.35279C24.4073 5.05561 24.7423 4.85322 25.1069 4.77123C25.4715 4.68923 25.8495 4.73131 26.1929 4.89215C26.5364 5.05299 26.83 5.32535 27.0365 5.67481C27.243 6.02426 27.3533 6.43511 27.3533 6.8554C27.3533 7.41898 27.1553 7.95948 26.8027 8.358C26.4502 8.75651 25.9721 8.98039 25.4736 8.98039Z" fill="black"/>
</svg>