<svg xmlns="http://www.w3.org/2000/svg" width="26" height="21" viewBox="0 0 26 21" fill="none">
  <path d="M12.2515 5.37322L4.22934 12.153V19.4703C4.22934 19.6598 4.30269 19.8415 4.43325 19.9755C4.56381 20.1094 4.74088 20.1847 4.92552 20.1847L9.80136 20.1717C9.9854 20.1708 10.1616 20.0951 10.2914 19.9613C10.4212 19.8274 10.4941 19.6462 10.4941 19.4574V15.1841C10.4941 14.9947 10.5674 14.813 10.698 14.679C10.8285 14.545 11.0056 14.4698 11.1902 14.4698H13.9749C14.1596 14.4698 14.3367 14.545 14.4672 14.679C14.5978 14.813 14.6711 14.9947 14.6711 15.1841V19.4543C14.6708 19.5483 14.6886 19.6414 14.7235 19.7283C14.7583 19.8152 14.8096 19.8943 14.8742 19.9608C14.9389 20.0274 15.0158 20.0802 15.1004 20.1163C15.185 20.1523 15.2757 20.1709 15.3673 20.1709L20.2414 20.1847C20.426 20.1847 20.6031 20.1094 20.7337 19.9755C20.8642 19.8415 20.9376 19.6598 20.9376 19.4703V12.1481L12.9172 5.37322C12.8229 5.29523 12.7054 5.2527 12.5843 5.2527C12.4632 5.2527 12.3458 5.29523 12.2515 5.37322ZM24.9232 9.98132L21.2857 6.90464V0.720466C21.2857 0.57837 21.2306 0.442094 21.1327 0.341617C21.0348 0.24114 20.902 0.184692 20.7635 0.184692H18.3269C18.1884 0.184692 18.0556 0.24114 17.9577 0.341617C17.8598 0.442094 17.8048 0.57837 17.8048 0.720466V3.96235L13.9092 0.673586C13.5354 0.357917 13.0663 0.185323 12.5822 0.185323C12.098 0.185323 11.6289 0.357917 11.2551 0.673586L0.241126 9.98132C0.188254 10.0262 0.144512 10.0813 0.112397 10.1434C0.0802825 10.2056 0.0604253 10.2737 0.0539602 10.3438C0.047495 10.4139 0.0545487 10.4846 0.074718 10.5518C0.0948873 10.6191 0.127777 10.6816 0.171508 10.7359L1.28104 12.12C1.32465 12.1744 1.37829 12.2194 1.4389 12.2525C1.4995 12.2857 1.56587 12.3062 1.63421 12.3129C1.70256 12.3197 1.77153 12.3126 1.83718 12.2919C1.90283 12.2713 1.96387 12.2376 2.01681 12.1927L12.2515 3.54266C12.3458 3.46467 12.4632 3.42214 12.5843 3.42214C12.7054 3.42214 12.8229 3.46467 12.9172 3.54266L23.1523 12.1927C23.2051 12.2376 23.2661 12.2714 23.3316 12.292C23.3972 12.3127 23.4661 12.32 23.5344 12.3133C23.6027 12.3067 23.669 12.2863 23.7296 12.2534C23.7902 12.2204 23.8439 12.1755 23.8876 12.1213L24.9971 10.7372C25.0408 10.6827 25.0736 10.6198 25.0935 10.5522C25.1134 10.4847 25.1202 10.4137 25.1133 10.3435C25.1064 10.2732 25.0861 10.2051 25.0535 10.1429C25.0208 10.0808 24.9766 10.0259 24.9232 9.98132Z" fill="#0074B7"/>
</svg>